HIERARCHY
ROOT SpineBase
{
  OFFSET 0.000000 0.000000 0.000000
  CHANNELS 6 Xposition Yposition Zposition Zrotation Xrotation Yrotation
  JOINT SpineMid
  {
    OFFSET -0.000000 28.314524 0.000000
    CHANNELS 3 Zrotation Xrotation Yrotation
    JOINT SpineShoulder
    {
      OFFSET -0.091985 20.987331 -0.639979
      CHANNELS 3 Zrotation Xrotation Yrotation
      JOINT Neck
      {
        OFFSET -0.055758 6.933882 -0.501547
        CHANNELS 3 Zrotation Xrotation Yrotation
        JOINT Head
        {
          OFFSET -1.432883 12.993344 0.202329
          CHANNELS 3 Zrotation Xrotation Yrotation
          End Site
          {
            OFFSET 0 0 0
          }
        }
      }
      JOINT ShoulderLeft
      {
        OFFSET -15.472178 -1.154566 6.565291
        CHANNELS 3 Zrotation Xrotation Yrotation
        JOINT ElbowLeft
        {
          OFFSET -0.658890 -24.739152 2.240618
          CHANNELS 3 Zrotation Xrotation Yrotation
          JOINT WristLeft
          {
            OFFSET -6.929408 0.265347 -24.789523
            CHANNELS 3 Zrotation Xrotation Yrotation
            JOINT HandLeft
            {
              OFFSET -3.017734 -1.321610 -4.245843
              CHANNELS 3 Zrotation Xrotation Yrotation
              JOINT HandTipLeft
              {
                OFFSET -0.995193 5.051482 -5.797749
                CHANNELS 3 Zrotation Xrotation Yrotation
                End Site
                {
                  OFFSET 0 0 0
                }
              }
              JOINT ThumbLeft
              {
                OFFSET -4.525132 -4.745838 -0.816683
                CHANNELS 3 Zrotation Xrotation Yrotation
                End Site
                {
                  OFFSET 0 0 0
                }
              }
            }
          }
        }
      }
      JOINT ShoulderRight
      {
        OFFSET 15.449606 -1.573423 -5.706554
        CHANNELS 3 Zrotation Xrotation Yrotation
        JOINT ElbowRight
        {
          OFFSET 8.655695 -22.428352 -2.479896
          CHANNELS 3 Zrotation Xrotation Yrotation
          JOINT WristRight
          {
            OFFSET -16.354269 -0.299653 -12.191450
            CHANNELS 3 Zrotation Xrotation Yrotation
            JOINT HandRight
            {
              OFFSET -6.781676 0.978854 -6.514545
              CHANNELS 3 Zrotation Xrotation Yrotation
              JOINT HandTipRight
              {
                OFFSET -3.124855 0.118183 -2.567854
                CHANNELS 3 Zrotation Xrotation Yrotation
                End Site
                {
                  OFFSET 0 0 0
                }
              }
              JOINT ThumbRight
              {
                OFFSET 0.133821 -1.473828 -3.784782
                CHANNELS 3 Zrotation Xrotation Yrotation
                End Site
                {
                  OFFSET 0 0 0
                }
              }
            }
          }
        }
      }
    }
  }
  JOINT HipLeft
  {
    OFFSET -7.238987 0.204302 -1.162509
    CHANNELS 3 Zrotation Xrotation Yrotation
    JOINT KneeLeft
    {
      OFFSET -6.441041 -33.126683 2.910801
      CHANNELS 3 Zrotation Xrotation Yrotation
      JOINT AnkleLeft
      {
        OFFSET -0.464965 -34.053089 5.582557
        CHANNELS 3 Zrotation Xrotation Yrotation
        JOINT FootLeft
        {
          OFFSET -3.260282 -3.604573 -11.904730
          CHANNELS 3 Zrotation Xrotation Yrotation
          End Site
          {
            OFFSET 0 0 0
          }
        }
      }
    }
  }
  JOINT HipRight
  {
    OFFSET 6.735611 1.072087 -5.481107
    CHANNELS 3 Zrotation Xrotation Yrotation
    JOINT KneeRight
    {
      OFFSET 5.085179 -31.258739 5.124350
      CHANNELS 3 Zrotation Xrotation Yrotation
      JOINT AnkleRight
      {
        OFFSET 0.762797 -35.273274 7.146938
        CHANNELS 3 Zrotation Xrotation Yrotation
        JOINT FootRight
        {
          OFFSET -3.209439 -2.005939 -14.408927
          CHANNELS 3 Zrotation Xrotation Yrotation
          End Site
          {
            OFFSET 0 0 0
          }
        }
      }
    }
  }
}
MOTION
Frames: 9
Frame Time: 0.033333
16.129356 70.260405 349.132303 2.794217 -0.026538 14.719339 -0.309450 -0.094497 -14.638786 -0.175209 -0.093175 0.093430 6.225802 -6.473538 -0.573579 0.000000 0.000000 0.000000 3.746069 5.777944 -0.080037 -9.737027 10.108542 -4.525475 0.292910 -2.457279 -8.541154 -1.692455 -1.832429 7.195172 0.000000 0.000000 0.000000 0.000000 0.000000 0.000000 0.617732 -3.566337 -1.882539 3.111447 -0.498263 2.884541 -14.857259 12.961731 36.648528 2.472708 -20.709580 -54.747576 0.000000 0.000000 0.000000 0.000000 0.000000 0.000000 1.056087 -1.426694 -14.086217 0.398713 0.014060 0.167917 -4.165310 1.054513 -1.937522 0.000000 0.000000 0.000000 2.565997 -0.548760 -13.812930 1.074432 -3.152096 0.532869 -5.365077 -3.340806 1.678045 0.000000 0.000000 0.000000
16.525285 70.268181 349.184311 2.538633 -0.121925 14.794740 -0.320088 -0.092760 -14.720787 -0.174223 -0.092943 0.081936 6.434567 -6.017517 -0.556222 0.000000 0.000000 0.000000 3.629166 7.403991 -0.201371 -9.436245 8.780590 -4.256756 1.145002 -4.356792 -7.996022 -3.095134 0.448363 6.227681 0.000000 0.000000 0.000000 0.000000 0.000000 0.000000 0.422077 -3.767195 -1.939328 3.198794 0.005804 1.886811 -17.711719 14.220718 26.241089 10.307227 -22.805529 -31.173271 0.000000 0.000000 0.000000 0.000000 0.000000 0.000000 1.190468 -1.271745 -14.199729 0.238114 -0.012069 0.149197 -3.867372 0.976048 -1.800462 0.000000 0.000000 0.000000 2.675565 -0.511362 -13.920446 0.910254 -3.279497 0.491986 -4.382318 -5.948153 1.455897 0.000000 0.000000 0.000000
16.812655 70.286548 349.230142 2.225004 -0.193659 14.881663 -0.317866 -0.083553 -14.816929 -0.168275 -0.085708 0.068791 6.670884 -5.663581 -0.533490 0.000000 0.000000 0.000000 3.564570 8.765112 -0.289334 -9.227011 7.708387 -3.469652 0.155080 -1.450130 -10.881157 -1.927009 -1.627246 7.921822 0.000000 0.000000 0.000000 0.000000 0.000000 0.000000 0.394330 -3.636552 -1.866029 3.281745 0.120640 1.911123 -12.574156 11.380817 29.885096 2.933437 -11.834502 -38.106835 0.000000 0.000000 0.000000 0.000000 0.000000 0.000000 1.429560 -1.326754 -14.280372 0.011898 0.252005 0.085154 -3.601937 0.768848 -1.666286 0.000000 0.000000 0.000000 2.901216 -0.481142 -14.022956 0.720613 -3.286967 0.438734 -3.536217 -8.306628 1.306739 0.000000 0.000000 0.000000
17.071664 70.340971 349.260764 1.927904 -0.205157 15.065077 -0.334293 -0.060620 -15.010921 -0.171789 -0.074516 0.054951 6.851265 -5.333102 -0.500749 0.000000 0.000000 0.000000 2.875162 11.012790 -0.425074 -8.131256 5.000175 -3.376622 -0.711473 -0.324518 -10.345355 -1.573412 -1.183274 7.071302 0.000000 0.000000 0.000000 0.000000 0.000000 0.000000 0.591965 -3.479044 -1.769665 2.293379 0.706403 1.294996 -6.204043 7.598744 29.104259 -1.472623 -2.536434 -35.408853 0.000000 0.000000 0.000000 0.000000 0.000000 0.000000 1.709824 -1.438957 -14.453152 -0.460097 0.429093 -0.001396 -3.708673 2.599017 -1.356522 0.000000 0.000000 0.000000 3.046589 -0.364370 -14.217868 0.796062 -3.593123 0.432581 -3.005925 -9.939966 1.246134 0.000000 0.000000 0.000000
17.298109 70.405508 349.280391 1.665592 -0.189362 15.293854 -0.342344 -0.033324 -15.249272 -0.172520 -0.060122 0.043203 6.759821 -5.141668 -0.475713 0.000000 0.000000 0.000000 2.474054 12.823291 -0.508577 -7.300034 2.266385 -2.983605 -1.432942 0.790552 -9.989354 -1.550957 -0.518071 5.994458 0.000000 0.000000 0.000000 0.000000 0.000000 0.000000 0.776567 -3.140214 -1.597406 1.070903 1.250234 0.983954 -0.031029 3.848415 28.327372 -6.774484 8.376910 -30.694971 0.000000 0.000000 0.000000 0.000000 0.000000 0.000000 1.874077 -1.625704 -14.660376 -0.422682 0.729979 -0.033088 -3.043403 -0.077100 -1.411538 0.000000 0.000000 0.000000 3.291590 -0.443583 -14.441786 0.627968 -3.593058 0.390567 -2.566293 -11.079189 1.263085 0.000000 0.000000 0.000000
17.472043 70.467128 349.264659 1.432518 -0.135320 15.512806 -0.339752 -0.000226 -15.476883 -0.169332 -0.042215 0.033494 6.379845 -5.004253 -0.453267 0.000000 0.000000 0.000000 2.213346 14.299412 -0.563585 -7.023896 1.200939 -2.306779 -3.563489 7.655267 -14.359501 1.554672 -5.960607 9.002266 0.000000 0.000000 0.000000 0.000000 0.000000 0.000000 0.991151 -2.652547 -1.359081 -0.432610 1.763775 0.935330 1.838998 2.099035 25.193229 -8.560476 11.369619 -26.612104 0.000000 0.000000 0.000000 0.000000 0.000000 0.000000 1.987566 -1.903265 -14.842450 -0.272435 1.137789 -0.064390 -2.604727 -2.395974 -1.442311 0.000000 0.000000 0.000000 3.496605 -0.645271 -14.660320 0.389742 -3.399236 0.340675 -2.254018 -11.560276 1.353561 0.000000 0.000000 0.000000
17.602417 70.522837 349.232607 1.194810 -0.052205 15.768888 -0.347153 0.025564 -15.741884 -0.853720 0.122323 -0.024588 6.655137 -5.015814 -0.363336 0.000000 0.000000 0.000000 3.057829 14.077664 -0.483215 -6.908908 0.777005 -1.907612 -7.407236 16.896346 -15.981114 7.188679 -12.793771 10.798915 0.000000 0.000000 0.000000 0.000000 0.000000 0.000000 2.124516 -2.561346 -1.170565 -2.178481 2.515615 1.265903 1.637231 1.305624 19.288993 -8.521877 10.045783 -19.301569 0.000000 0.000000 0.000000 0.000000 0.000000 0.000000 2.121063 -2.231706 -15.054611 0.005873 1.520598 -0.078519 -2.466545 -4.160948 -1.458348 0.000000 0.000000 0.000000 3.686904 -0.882446 -14.915398 0.305165 -3.258117 0.328558 -2.273912 -11.202087 1.492572 0.000000 0.000000 0.000000
17.749493 70.581347 349.203987 1.003416 0.023168 16.049189 -0.970718 0.255132 -16.047230 -0.000000 0.000000 0.000000 5.997256 -4.931232 -0.377213 0.000000 0.000000 0.000000 2.945380 13.093323 -0.426234 -6.698000 1.236091 -1.638783 -8.489054 19.052194 -15.770707 9.663160 -15.486880 11.743170 0.000000 0.000000 0.000000 0.000000 0.000000 0.000000 2.014865 -1.731076 -0.856086 -4.028168 3.075216 2.211881 0.741699 1.166418 11.244722 -6.292688 6.150045 -13.292094 0.000000 0.000000 0.000000 0.000000 0.000000 0.000000 2.146889 -2.462802 -15.313737 0.524547 1.953278 -0.059924 -2.648035 -5.426518 -1.501981 0.000000 0.000000 0.000000 3.700466 -1.129538 -15.224507 0.342509 -2.955021 0.340836 -2.472888 -10.199264 1.667169 0.000000 0.000000 0.000000
17.887792 70.633459 349.173481 0.872035 0.109090 16.334600 -0.867517 0.140572 -16.334366 -0.000000 0.000000 0.000000 5.208846 -4.667504 -0.382071 0.000000 0.000000 0.000000 2.726503 13.004362 -0.416229 -6.438560 1.042438 -1.389012 -11.755453 23.350639 -13.830129 12.975421 -17.654680 11.230692 0.000000 0.000000 0.000000 0.000000 0.000000 0.000000 1.626727 -0.654709 -0.421213 -5.567658 3.375828 2.669587 1.185866 0.624154 6.641617 -4.864325 4.207275 -10.168803 0.000000 0.000000 0.000000 0.000000 0.000000 0.000000 2.132380 -2.644225 -15.587728 0.887311 2.151214 -0.042943 -2.848772 -5.849441 -1.545464 0.000000 0.000000 0.000000 3.562591 -1.382569 -15.559203 0.490275 -2.709922 0.379142 -2.859993 -8.443231 1.871719 0.000000 0.000000 0.000000
